<?xml version="1.0" encoding="utf-8"?>
<!-- Generator: Adobe Illustrator 16.0.0, SVG Export Plug-In . SVG Version: 6.00 Build 0)  -->
<!DOCTYPE svg PUBLIC "-//W3C//DTD SVG 1.1//EN" "http://www.w3.org/Graphics/SVG/1.1/DTD/svg11.dtd">
<svg version="1.1" id="图层_1" xmlns="http://www.w3.org/2000/svg" xmlns:xlink="http://www.w3.org/1999/xlink" x="0px" y="0px"
	 width="12px" height="16px" viewBox="0 0 12 16" enable-background="new 0 0 12 16" xml:space="preserve">
<path fill="#FFFFFF" d="M5.659,2.252c-1.878,0-3.407,1.528-3.407,3.407s1.529,3.407,3.407,3.407c1.879,0,3.408-1.528,3.408-3.407
	S7.538,2.252,5.659,2.252z M5.659,8.256c-1.432,0-2.597-1.165-2.597-2.597s1.165-2.598,2.597-2.598c1.433,0,2.597,1.166,2.597,2.598
	S7.092,8.256,5.659,8.256z"/>
<path fill="#FFFFFF" d="M5.763,15.818l0.046-0.021l0.009-0.006c0.008-0.003,0.017-0.011,0.025-0.015
	c0.012-0.007,0.02-0.012,0.028-0.016c0.018-0.011,0.03-0.021,0.043-0.031l0.041-0.037c0.016-0.017,0.026-0.03,0.036-0.044
	c3.008-4.226,4.373-6.798,4.519-7.078l0.032-0.062l0.006,0.003c0.503-0.863,0.771-1.848,0.771-2.854
	c0-1.512-0.588-2.933-1.657-4.001S7.171,0,5.659,0C4.147,0,2.726,0.589,1.658,1.658C0.589,2.727,0,4.147,0,5.659
	c0,1.006,0.267,1.993,0.773,2.857l0.005-0.003l0.03,0.062c0.218,0.463,1.462,2.976,4.524,7.082c0.01,0.014,0.021,0.026,0.032,0.039
	l0.005,0.004c0.003,0.004,0.007,0.007,0.01,0.012l0.026,0.021c0.017,0.014,0.03,0.022,0.044,0.031
	c0.02,0.012,0.038,0.021,0.055,0.027l0.005,0.003l0.033,0.011c0.005,0.002,0.011,0.003,0.015,0.004 M5.703,14.652l-0.051,0.074
	l-0.053-0.073c-2.923-3.994-4.064-6.436-4.075-6.46C1.511,8.166,1.497,8.141,1.479,8.119L1.475,8.111
	C1.04,7.371,0.81,6.523,0.81,5.659c0-1.296,0.504-2.514,1.421-3.429C3.146,1.314,4.364,0.81,5.659,0.81
	c1.296,0,2.514,0.504,3.43,1.421c0.915,0.915,1.419,2.133,1.419,3.429c0,0.864-0.229,1.712-0.666,2.453L9.839,8.119
	C9.825,8.137,9.812,8.156,9.803,8.176C9.79,8.2,8.537,10.619,5.703,14.652z"/>
</svg>
