<?xml version="1.0" encoding="utf-8"?>
<!-- Generator: Adobe Illustrator 16.0.0, SVG Export Plug-In . SVG Version: 6.00 Build 0)  -->
<!DOCTYPE svg PUBLIC "-//W3C//DTD SVG 1.1//EN" "http://www.w3.org/Graphics/SVG/1.1/DTD/svg11.dtd">
<svg version="1.1" id="图层_1" xmlns="http://www.w3.org/2000/svg" xmlns:xlink="http://www.w3.org/1999/xlink" x="0px" y="0px"
	 width="107px" height="40px" viewBox="0 0 107 40" enable-background="new 0 0 107 40" xml:space="preserve">
<g>
	<path fill="#656464" d="M23.669,16.461c0-0.761-0.121-0.912-0.538-1.135l-0.286-0.15c-0.088-0.03-0.118-0.044-0.118-0.105v-0.089
		c0-0.059,0.03-0.089,0.118-0.134l1.48-0.762c0.089-0.044,0.15-0.06,0.209-0.06c0.089,0,0.105,0.09,0.105,0.179l0.074,1.062h0.058
		c0.447-0.688,1.15-1.3,1.793-1.3c0.508,0,0.762,0.314,0.762,0.659c0,0.432-0.358,0.731-0.627,0.731
		c-0.164,0-0.314-0.06-0.434-0.119c-0.119-0.076-0.299-0.119-0.494-0.119c-0.238,0-0.627,0.15-0.882,0.627
		c-0.089,0.164-0.149,0.433-0.149,0.478v3.108c0,0.462,0.104,0.612,0.42,0.612h0.701c0.089,0,0.104,0.044,0.104,0.134v0.269
		c0,0.09-0.015,0.135-0.074,0.135c-0.089,0-0.777-0.045-1.583-0.045c-0.926,0-1.554,0.045-1.646,0.045
		c-0.058,0-0.09-0.031-0.09-0.148v-0.255c0-0.104,0.032-0.134,0.166-0.134h0.583c0.221,0,0.328-0.09,0.328-0.284
		c0.015-0.493,0.015-1.016,0.015-1.793L23.669,16.461L23.669,16.461z"/>
	<path fill="#656464" d="M30.004,19.585c-0.689-0.823-0.823-1.375-0.823-2.436c0-0.762,0.404-1.718,1.285-2.406
		c0.777-0.598,1.509-0.718,2.002-0.718c0.821,0,1.644,0.419,2.092,0.866c0.671,0.69,1.016,1.465,1.016,2.437
		c0,1.629-1.464,3.288-3.303,3.288C31.559,20.617,30.632,20.333,30.004,19.585 M34.321,17.179c0-1.658-1.209-2.704-1.972-2.704
		c-0.404,0-0.791,0.089-1.149,0.477c-0.584,0.598-0.792,1.21-0.792,2.347c0,0.836,0.091,1.404,0.568,2.091
		c0.343,0.494,0.777,0.778,1.478,0.778C33.59,20.168,34.321,18.779,34.321,17.179"/>
	<path fill="#656464" d="M38.565,20.182c-0.074-0.045-0.074-0.134-0.088-0.208l-0.253-1.42c-0.017-0.075,0.027-0.104,0.089-0.12
		l0.193-0.045c0.061-0.015,0.104,0.016,0.136,0.091l0.372,0.732c0.3,0.553,0.508,0.926,1.301,0.926c0.522,0,1.18-0.314,1.18-1.016
		c0-0.672-0.328-1.061-1.448-1.376c-0.881-0.254-1.762-0.717-1.762-1.896c0-1.032,0.971-1.824,2.089-1.824
		c0.718,0,1.107,0.18,1.376,0.313c0.223,0.105,0.254,0.179,0.268,0.27l0.226,1.046c0,0.059-0.031,0.104-0.105,0.135l-0.179,0.06
		c-0.06,0.015-0.09,0-0.134-0.076l-0.509-0.686c-0.179-0.285-0.463-0.583-1.045-0.583c-0.567,0-1.15,0.344-1.15,0.986
		c0,0.866,0.702,1.031,1.434,1.241c1.09,0.312,1.778,0.761,1.793,1.913c-0.015,1.209-1,1.973-2.27,1.973
		C39.343,20.617,38.746,20.316,38.565,20.182"/>
	<path fill="#656464" d="M46.126,16.461c-0.029,0.135-0.044,0.375-0.044,0.717c0,1.465,0.926,2.57,2.122,2.57
		c0.912,0,1.554-0.522,1.811-1.016c0.03-0.06,0.088-0.089,0.133-0.074l0.194,0.104c0.045,0.015,0.075,0.06,0,0.225
		c-0.267,0.597-1.046,1.629-2.377,1.629c-0.85,0-1.792-0.255-2.346-1.062c-0.522-0.761-0.657-1.314-0.657-2.36
		c0-0.583,0.149-1.583,0.942-2.376c0.642-0.657,1.389-0.792,2.137-0.792c1.718,0,2.196,1.614,2.196,2.197
		c0,0.209-0.18,0.239-0.418,0.239L46.126,16.461L46.126,16.461z M48.503,16.014c0.283,0,0.404-0.074,0.404-0.209
		c0-0.344-0.179-1.33-1.151-1.33c-0.659,0-1.285,0.433-1.57,1.539H48.503L48.503,16.014z"/>
	<path fill="#656464" d="M53.613,19.585c-0.687-0.823-0.822-1.375-0.822-2.436c0-0.762,0.403-1.718,1.286-2.406
		c0.774-0.598,1.51-0.718,2.003-0.718c0.82,0,1.643,0.419,2.093,0.866c0.673,0.69,1.015,1.465,1.015,2.437
		c0,1.629-1.465,3.288-3.302,3.288C55.168,20.617,54.24,20.333,53.613,19.585 M57.934,17.179c0-1.658-1.211-2.704-1.975-2.704
		c-0.402,0-0.791,0.089-1.15,0.477c-0.582,0.598-0.793,1.21-0.793,2.347c0,0.836,0.09,1.404,0.568,2.091
		c0.344,0.494,0.777,0.778,1.479,0.778C57.2,20.168,57.934,18.779,57.934,17.179"/>
	<path fill="#656464" d="M67.825,19.629c0,0.24,0.134,0.314,0.325,0.314h0.479c0.136,0,0.165,0.044,0.165,0.134v0.239
		c0,0.105-0.031,0.166-0.12,0.166c-0.106,0-0.567-0.045-1.421-0.045c-0.764,0-1.24,0.045-1.346,0.045
		c-0.092,0-0.118-0.045-0.118-0.166v-0.239c0-0.104,0.045-0.134,0.194-0.134h0.432c0.165,0,0.285-0.075,0.302-0.344
		c0.015-0.388,0.027-0.866,0.027-1.254v-1.973c0-0.597,0-1.031-0.433-1.345c-0.358-0.269-0.717-0.269-1.09-0.269
		c-0.238,0-0.763,0.104-1.211,0.583c-0.299,0.328-0.345,0.732-0.345,1.016v3.094c0,0.402,0.046,0.493,0.358,0.493h0.377
		c0.117,0,0.146,0.044,0.146,0.15v0.252c0,0.09-0.028,0.135-0.103,0.135c-0.107,0-0.51-0.045-1.301-0.045
		c-0.765,0-1.242,0.045-1.33,0.045c-0.075,0-0.106-0.045-0.106-0.135v-0.27c0-0.089,0.031-0.134,0.151-0.134h0.433
		c0.192,0,0.297-0.045,0.297-0.299V16.15c0-0.449-0.237-0.702-0.612-0.882l-0.117-0.06c-0.104-0.044-0.119-0.089-0.119-0.134v-0.078
		c0-0.075,0.058-0.12,0.135-0.149l1.284-0.717c0.12-0.06,0.209-0.105,0.271-0.105c0.072,0,0.104,0.06,0.116,0.181l0.104,0.91h0.031
		c0.434-0.537,1.301-1.091,2.047-1.091c0.447,0,0.91,0.091,1.268,0.33c0.447,0.299,0.824,1.047,0.824,1.42v3.854H67.825z"/>
	<path fill="#656464" d="M73.084,15.985c0,0.777,0,3.032,0.016,3.496c0.015,0.254,0.072,0.463,0.387,0.463h0.674
		c0.135,0,0.163,0.044,0.163,0.134v0.254c0,0.09-0.028,0.15-0.089,0.15c-0.104,0-0.762-0.045-1.688-0.045
		c-0.955,0-1.556,0.045-1.688,0.045c-0.074,0-0.104-0.06-0.104-0.15v-0.254c0-0.104,0.029-0.134,0.193-0.134h0.717
		c0.165,0,0.314-0.104,0.33-0.374c0.015-0.462,0.015-3.033,0.015-3.9v-0.942c0-1.06-0.015-2.419-0.044-2.808
		c-0.031-0.508-0.271-0.748-0.747-0.897l-0.301-0.104c-0.075-0.03-0.091-0.044-0.091-0.074v-0.118c0-0.045,0.046-0.075,0.136-0.104
		c0.522-0.24,1.197-0.509,1.748-0.869c0.136-0.089,0.228-0.119,0.315-0.119c0.104,0,0.133,0.075,0.119,0.269
		c-0.017,0.822-0.06,3.93-0.06,4.752v1.331L73.084,15.985L73.084,15.985z"/>
	<path fill="#656464" d="M76.057,23.74c0-0.313,0.328-0.582,0.688-0.582c0.283,0,0.554,0.133,0.688,0.164
		c0.104,0.016,0.225,0,0.314-0.092c0.223-0.268,0.986-1.975,1.195-2.554c-0.076-0.374-1.657-5.052-1.777-5.365
		c-0.182-0.373-0.314-0.628-0.704-0.628h-0.388c-0.105,0-0.121-0.045-0.121-0.135v-0.298c0-0.06,0.015-0.106,0.121-0.106
		c0.135,0,0.492,0.045,1.373,0.045c0.764,0,1.226-0.045,1.391-0.045c0.12,0,0.135,0.045,0.135,0.106v0.313
		c0,0.074-0.015,0.12-0.09,0.12h-0.283c-0.162,0-0.224,0.104-0.191,0.328c0.044,0.329,1.061,3.631,1.226,3.959h0.058
		c0.15-0.239,1.449-3.347,1.539-3.72c0.09-0.375-0.029-0.567-0.254-0.567h-0.24c-0.09,0-0.104-0.046-0.104-0.12v-0.299
		c0-0.075,0.017-0.12,0.091-0.12c0.194,0,0.508,0.045,1.225,0.045c0.406,0,0.748-0.045,0.914-0.045c0.086,0,0.086,0.061,0.086,0.12
		v0.285c0,0.089,0,0.135-0.07,0.135h-0.24c-0.162,0-0.374,0.075-0.525,0.268c-0.326,0.403-1.312,2.69-2.344,5.036
		c-0.731,1.659-1.313,3.05-1.584,3.54c-0.209,0.39-0.477,0.972-1.269,0.972C76.342,24.501,76.057,24.188,76.057,23.74"/>
	<path fill="#656464" d="M83.827,19.735c0-0.254,0.179-0.837,0.928-0.837c0.435,0,0.836,0.344,0.836,0.897
		c0,0.491-0.374,0.821-0.836,0.821C84.423,20.617,83.827,20.437,83.827,19.735"/>
	<path fill="#656464" d="M43.334,29.111h0.023l0.461-1.262c0.074-0.199,0.029-0.312-0.086-0.312h-0.079
		c-0.029,0-0.035-0.019-0.035-0.046v-0.121c0-0.025,0.017-0.039,0.04-0.039c0.035,0,0.206,0.016,0.439,0.016
		c0.246,0,0.347-0.016,0.417-0.016c0.029,0,0.041,0.016,0.041,0.039v0.121c0,0.027-0.012,0.046-0.041,0.046H44.37
		c-0.068,0-0.148,0.046-0.183,0.098c-0.068,0.106-0.792,1.927-0.866,2.108c-0.022,0.062-0.063,0.074-0.109,0.074
		c-0.04,0-0.08-0.041-0.103-0.106l-0.558-1.631h-0.029l-0.7,1.646c-0.028,0.068-0.074,0.092-0.12,0.092
		c-0.045,0-0.074-0.045-0.097-0.114l-0.746-2.015c-0.04-0.105-0.103-0.151-0.239-0.151h-0.126c-0.034,0-0.04-0.019-0.04-0.052
		v-0.107c0-0.027,0.006-0.045,0.035-0.045c0.079,0,0.193,0.018,0.52,0.018c0.256,0,0.393-0.018,0.478-0.018
		c0.036,0,0.046,0.014,0.046,0.045v0.113c0,0.027-0.005,0.046-0.046,0.046h-0.051c-0.063,0-0.103,0.051-0.068,0.151l0.45,1.52h0.023
		l0.582-1.396c-0.012-0.092-0.016-0.137-0.051-0.183c-0.028-0.041-0.074-0.058-0.153-0.058h-0.086c-0.028,0-0.039-0.014-0.039-0.043
		v-0.118c0-0.032,0.016-0.046,0.051-0.046c0.045,0,0.228,0.018,0.513,0.018c0.261,0,0.387-0.018,0.434-0.018
		c0.039,0,0.051,0.014,0.051,0.042v0.12c0,0.027-0.013,0.045-0.04,0.045h-0.12c-0.057,0-0.103,0.062-0.08,0.146L43.334,29.111z"/>
	<path fill="#656464" d="M45.523,28.216c-0.012,0.05-0.018,0.142-0.018,0.272c0,0.561,0.354,0.982,0.81,0.982
		c0.348,0,0.594-0.199,0.691-0.39c0.012-0.021,0.034-0.033,0.05-0.026l0.075,0.039c0.016,0.006,0.029,0.024,0,0.083
		c-0.104,0.229-0.399,0.623-0.907,0.623c-0.325,0-0.684-0.098-0.895-0.403c-0.199-0.291-0.251-0.504-0.251-0.902
		c0-0.223,0.057-0.604,0.359-0.905c0.245-0.251,0.529-0.303,0.815-0.303c0.656,0,0.838,0.616,0.838,0.838
		c0,0.08-0.067,0.092-0.16,0.092H45.523z M46.43,28.045c0.107,0,0.154-0.029,0.154-0.079c0-0.132-0.068-0.508-0.438-0.508
		c-0.251,0-0.491,0.166-0.599,0.588L46.43,28.045L46.43,28.045z"/>
	<path fill="#656464" d="M49.708,26.259c0-0.216-0.041-0.284-0.358-0.335c-0.035-0.006-0.04-0.016-0.04-0.041v-0.096
		c0-0.023,0.011-0.034,0.045-0.04c0.222-0.045,0.519-0.099,0.627-0.121c0.05-0.006,0.091-0.017,0.131-0.017
		c0.029,0,0.034,0.041,0.029,0.104c-0.018,0.283-0.023,1.11-0.023,1.835v1.26c0,0.211,0.01,0.463,0.056,0.521
		c0.051,0.057,0.171,0.09,0.251,0.098c0.081,0.007,0.104,0.011,0.114,0.04l0.012,0.047c0.005,0.032-0.006,0.049-0.04,0.062
		l-0.645,0.217c-0.035,0.013-0.063-0.004-0.075-0.044l-0.074-0.253c-0.183,0.185-0.547,0.31-0.838,0.31
		c-0.188,0-0.405,0.012-0.673-0.263c-0.291-0.283-0.359-0.543-0.359-0.923c0-0.354,0.13-0.701,0.399-0.971
		c0.223-0.237,0.53-0.357,0.849-0.357c0.235,0,0.439,0.033,0.611,0.085L49.708,26.259L49.708,26.259z M49.708,28.066
		c0-0.078,0-0.188-0.051-0.278c-0.08-0.152-0.262-0.308-0.599-0.308c-0.178,0-0.372,0.049-0.519,0.203
		c-0.223,0.239-0.263,0.541-0.263,0.758c0,0.644,0.445,1.113,0.775,1.113c0.319,0,0.563-0.164,0.622-0.315
		c0.029-0.083,0.034-0.13,0.034-0.192L49.708,28.066L49.708,28.066z"/>
	<path fill="#656464" d="M52.906,26.259c0-0.216-0.041-0.284-0.359-0.335c-0.035-0.006-0.04-0.016-0.04-0.041v-0.096
		c0-0.023,0.011-0.034,0.045-0.04c0.223-0.045,0.52-0.099,0.627-0.121c0.052-0.006,0.091-0.017,0.13-0.017
		c0.03,0,0.035,0.041,0.03,0.104c-0.017,0.283-0.024,1.11-0.024,1.835v1.26c0,0.211,0.011,0.463,0.057,0.521
		c0.052,0.057,0.171,0.09,0.252,0.098c0.08,0.007,0.102,0.011,0.113,0.04l0.012,0.047c0.005,0.032-0.006,0.049-0.04,0.062
		l-0.645,0.217c-0.034,0.013-0.063-0.004-0.075-0.044l-0.073-0.253c-0.184,0.185-0.547,0.31-0.838,0.31
		c-0.188,0-0.405,0.012-0.673-0.263c-0.292-0.283-0.359-0.543-0.359-0.923c0-0.354,0.13-0.701,0.398-0.971
		c0.223-0.237,0.53-0.357,0.85-0.357c0.234,0,0.438,0.033,0.611,0.085v-1.114l0,0v-0.003H52.906z M52.906,28.066
		c0-0.078,0-0.188-0.052-0.278c-0.079-0.152-0.262-0.308-0.598-0.308c-0.177,0-0.371,0.049-0.518,0.203
		c-0.223,0.239-0.263,0.541-0.263,0.758c0,0.644,0.445,1.113,0.775,1.113c0.319,0,0.565-0.164,0.622-0.315
		c0.028-0.083,0.035-0.13,0.035-0.192L52.906,28.066L52.906,28.066z"/>
	<path fill="#656464" d="M54.957,28.073c0-0.194-0.033-0.296-0.316-0.341c-0.043-0.008-0.052-0.019-0.052-0.043v-0.049
		c0-0.017,0.013-0.031,0.039-0.043c0.185-0.068,0.401-0.16,0.618-0.279c0.044-0.021,0.074-0.033,0.107-0.033
		c0.026,0,0.032,0.027,0.026,0.068c-0.013,0.098-0.013,0.457-0.013,0.931v0.62c0,0.223,0,0.429,0.005,0.492
		c0.014,0.105,0.028,0.146,0.094,0.146h0.263c0.043,0,0.056,0.016,0.056,0.051v0.098c0,0.039-0.013,0.057-0.05,0.057
		c-0.045,0-0.311-0.018-0.549-0.018c-0.33,0-0.554,0.018-0.615,0.018c-0.03,0-0.045-0.012-0.045-0.044V29.59
		c0-0.033,0.015-0.046,0.058-0.046h0.28c0.062,0,0.082-0.021,0.091-0.112c0.006-0.172,0.006-0.349,0.006-0.52v-0.837h-0.003V28.073z
		 M54.689,26.323c0-0.149,0.127-0.319,0.358-0.319c0.211,0,0.31,0.17,0.31,0.301c0,0.155-0.103,0.34-0.342,0.34
		C54.885,26.643,54.689,26.511,54.689,26.323"/>
	<path fill="#656464" d="M59.021,29.425c0,0.093,0.053,0.118,0.125,0.118h0.186c0.05,0,0.062,0.02,0.062,0.053v0.092
		c0,0.039-0.013,0.062-0.045,0.062c-0.039,0-0.216-0.017-0.541-0.017c-0.291,0-0.473,0.017-0.516,0.017
		c-0.033,0-0.044-0.017-0.044-0.062v-0.092c0-0.041,0.017-0.053,0.074-0.053h0.166c0.062,0,0.108-0.025,0.114-0.131
		c0.006-0.146,0.013-0.331,0.013-0.479v-0.752c0-0.229,0-0.396-0.166-0.515c-0.14-0.104-0.273-0.104-0.417-0.104
		c-0.092,0-0.29,0.041-0.463,0.224c-0.113,0.127-0.133,0.278-0.133,0.388v1.182c0,0.154,0.019,0.187,0.138,0.187h0.144
		c0.045,0,0.059,0.019,0.059,0.06v0.098c0,0.033-0.014,0.05-0.041,0.05c-0.041,0-0.193-0.017-0.497-0.017
		c-0.288,0-0.474,0.017-0.507,0.017c-0.028,0-0.039-0.017-0.039-0.05v-0.104c0-0.035,0.011-0.054,0.054-0.054h0.167
		c0.074,0,0.115-0.015,0.115-0.11v-1.334c0-0.173-0.092-0.27-0.234-0.339l-0.048-0.022c-0.038-0.014-0.043-0.033-0.043-0.051v-0.027
		c0-0.026,0.022-0.045,0.05-0.057l0.491-0.273c0.047-0.021,0.08-0.04,0.104-0.04c0.027,0,0.039,0.021,0.043,0.067l0.041,0.348h0.014
		c0.166-0.204,0.494-0.415,0.781-0.415c0.17,0,0.348,0.032,0.485,0.125c0.169,0.112,0.312,0.399,0.312,0.542v1.471L59.021,29.425
		L59.021,29.425z"/>
	<path fill="#656464" d="M60.441,31.102c-0.205-0.125-0.291-0.272-0.291-0.461c0-0.32,0.326-0.565,0.6-0.686v-0.021
		c-0.239-0.051-0.38-0.228-0.38-0.398c0-0.274,0.312-0.469,0.513-0.543V28.98c-0.222-0.097-0.531-0.358-0.531-0.865
		c0-0.372,0.332-0.828,0.978-0.828c0.432,0,0.662,0.263,0.72,0.329c0.152-0.107,0.348-0.222,0.534-0.222
		c0.188,0,0.281,0.127,0.269,0.241c0,0.104-0.092,0.208-0.223,0.208c-0.097,0-0.154-0.045-0.199-0.085
		c-0.031-0.022-0.074-0.05-0.119-0.05c-0.039,0-0.107,0-0.184,0.033c0.044,0.113,0.087,0.238,0.087,0.434
		c0,0.223-0.063,0.439-0.21,0.615c-0.15,0.166-0.477,0.286-0.663,0.286c-0.126,0-0.208-0.005-0.291-0.029
		c-0.112,0.044-0.302,0.161-0.302,0.319c0,0.234,0.284,0.217,0.669,0.193c0.466-0.021,0.752,0.027,0.979,0.205
		c0.244,0.184,0.271,0.411,0.277,0.547c0,0.27-0.097,0.492-0.381,0.701c-0.148,0.108-0.49,0.27-0.975,0.27
		C61.041,31.284,60.716,31.255,60.441,31.102 M62.323,30.514c0-0.336-0.257-0.593-0.826-0.554L60.949,30
		c-0.178,0.046-0.457,0.24-0.457,0.549c0,0.143,0.107,0.312,0.224,0.395c0.188,0.133,0.394,0.16,0.798,0.16
		C61.727,31.102,62.354,30.953,62.323,30.514 M61.795,28.085c0-0.252-0.052-0.399-0.154-0.513c-0.074-0.075-0.188-0.127-0.273-0.127
		c-0.133,0-0.271,0.021-0.404,0.16c-0.186,0.193-0.204,0.457-0.204,0.672c0,0.195,0.062,0.371,0.181,0.498
		c0.104,0.098,0.205,0.141,0.343,0.141C61.668,28.916,61.795,28.443,61.795,28.085"/>
</g>
</svg>
