<?xml version="1.0" encoding="utf-8"?>
<!-- Generator: Adobe Illustrator 16.0.0, SVG Export Plug-In . SVG Version: 6.00 Build 0)  -->
<!DOCTYPE svg PUBLIC "-//W3C//DTD SVG 1.1//EN" "http://www.w3.org/Graphics/SVG/1.1/DTD/svg11.dtd">
<svg version="1.1" id="图层_1" xmlns="http://www.w3.org/2000/svg" xmlns:xlink="http://www.w3.org/1999/xlink" x="0px" y="0px"
	 width="107px" height="40px" viewBox="0 0 107 40" enable-background="new 0 0 107 40" xml:space="preserve">
<g>
	<path fill="#8E8E8E" d="M44.758,20.645c0-0.608-0.097-0.729-0.431-0.907l-0.225-0.12c-0.073-0.025-0.096-0.037-0.096-0.083v-0.07
		c0-0.048,0.023-0.072,0.096-0.107l1.178-0.607c0.073-0.037,0.12-0.048,0.167-0.048c0.073,0,0.083,0.071,0.083,0.144l0.06,0.821
		h0.049c0.356-0.548,0.917-1.037,1.429-1.037c0.406,0,0.608,0.25,0.608,0.524c0,0.346-0.287,0.584-0.5,0.584
		c-0.131,0-0.25-0.048-0.346-0.096c-0.095-0.061-0.238-0.095-0.393-0.095c-0.191,0-0.501,0.119-0.704,0.501
		c-0.071,0.131-0.12,0.345-0.12,0.381v2.5c0,0.37,0.084,0.49,0.334,0.49h0.56c0.072,0,0.083,0.035,0.083,0.105v0.217
		c0,0.07-0.012,0.105-0.06,0.105c-0.071,0-0.62-0.035-1.262-0.035c-0.738,0-1.241,0.035-1.312,0.035
		c-0.048,0-0.072-0.022-0.072-0.119v-0.203c0-0.086,0.024-0.105,0.131-0.105h0.464c0.179,0,0.263-0.07,0.263-0.227
		c0.013-0.395,0.013-0.812,0.013-1.433v-1.118h0.003V20.645z"/>
	<path fill="#8E8E8E" d="M49.81,23.133c-0.547-0.656-0.655-1.096-0.655-1.941c0-0.605,0.321-1.371,1.024-1.917
		c0.621-0.477,1.204-0.572,1.597-0.572c0.655,0,1.31,0.334,1.669,0.692c0.536,0.548,0.81,1.167,0.81,1.941
		c0,1.3-1.168,2.621-2.633,2.621C51.05,23.955,50.311,23.729,49.81,23.133 M53.254,21.214c0-1.32-0.966-2.155-1.575-2.155
		c-0.321,0-0.63,0.073-0.916,0.381c-0.465,0.476-0.633,0.966-0.633,1.871c0,0.668,0.071,1.121,0.454,1.67
		c0.273,0.393,0.619,0.617,1.18,0.617C52.67,23.598,53.254,22.49,53.254,21.214"/>
	<path fill="#8E8E8E" d="M56.639,23.607c-0.059-0.034-0.059-0.104-0.072-0.168l-0.199-1.129c-0.014-0.062,0.021-0.082,0.07-0.097
		l0.152-0.034c0.049-0.014,0.084,0.012,0.107,0.068l0.297,0.586c0.238,0.438,0.404,0.736,1.039,0.736
		c0.416,0,0.939-0.247,0.939-0.811c0-0.535-0.264-0.846-1.154-1.096c-0.703-0.203-1.408-0.57-1.408-1.514
		c0-0.823,0.775-1.454,1.668-1.454c0.572,0,0.881,0.144,1.098,0.25c0.178,0.083,0.203,0.143,0.215,0.213l0.178,0.834
		c0,0.048-0.021,0.083-0.084,0.107l-0.143,0.048c-0.049,0.011-0.07,0-0.107-0.061l-0.402-0.548
		c-0.145-0.227-0.369-0.465-0.834-0.465c-0.453,0-0.918,0.274-0.918,0.786c0,0.691,0.561,0.822,1.145,0.99
		c0.869,0.25,1.418,0.607,1.43,1.525c-0.012,0.964-0.799,1.572-1.812,1.572C57.26,23.955,56.781,23.717,56.639,23.607"/>
	<path fill="#8E8E8E" d="M62.668,20.645c-0.023,0.106-0.035,0.297-0.035,0.569c0,1.169,0.738,2.05,1.691,2.05
		c0.727,0,1.24-0.416,1.443-0.809c0.021-0.051,0.068-0.071,0.104-0.061l0.154,0.082c0.033,0.014,0.061,0.049,0,0.181
		c-0.215,0.476-0.834,1.298-1.896,1.298c-0.68,0-1.43-0.202-1.868-0.846c-0.418-0.605-0.525-1.049-0.525-1.883
		c0-0.463,0.121-1.265,0.752-1.896c0.511-0.523,1.107-0.631,1.705-0.631c1.369,0,1.75,1.288,1.75,1.752
		c0,0.165-0.144,0.188-0.334,0.188h-2.942L62.668,20.645L62.668,20.645z M64.564,20.287c0.225,0,0.318-0.06,0.318-0.167
		c0-0.273-0.143-1.061-0.918-1.061c-0.521,0-1.023,0.347-1.25,1.228H64.564L64.564,20.287z"/>
	<path fill="#8E8E8E" d="M68.639,23.133c-0.549-0.656-0.656-1.096-0.656-1.941c0-0.605,0.322-1.371,1.025-1.917
		c0.621-0.477,1.203-0.572,1.598-0.572c0.656,0,1.312,0.334,1.668,0.692c0.535,0.548,0.812,1.167,0.812,1.941
		c0,1.3-1.168,2.621-2.637,2.621C69.877,23.955,69.141,23.729,68.639,23.133 M72.084,21.214c0-1.32-0.967-2.155-1.574-2.155
		c-0.32,0-0.633,0.073-0.92,0.381c-0.465,0.476-0.631,0.966-0.631,1.871c0,0.668,0.07,1.121,0.453,1.67
		c0.273,0.393,0.619,0.617,1.18,0.617C71.5,23.598,72.084,22.49,72.084,21.214"/>
	<path fill="#8E8E8E" d="M79.975,23.169c0,0.19,0.104,0.251,0.26,0.251h0.383c0.105,0,0.131,0.035,0.131,0.105v0.189
		c0,0.082-0.021,0.133-0.098,0.133c-0.082,0-0.449-0.035-1.129-0.035c-0.607,0-0.992,0.035-1.072,0.035
		c-0.07,0-0.096-0.035-0.096-0.133v-0.189c0-0.086,0.035-0.105,0.154-0.105h0.344c0.131,0,0.229-0.061,0.238-0.275
		c0.012-0.308,0.023-0.688,0.023-1v-1.57c0-0.478,0-0.824-0.346-1.073c-0.285-0.215-0.572-0.215-0.869-0.215
		c-0.191,0-0.609,0.083-0.965,0.464c-0.238,0.263-0.273,0.583-0.273,0.812v2.465c0,0.322,0.035,0.395,0.283,0.395h0.301
		c0.094,0,0.119,0.035,0.119,0.12v0.202c0,0.07-0.025,0.105-0.084,0.105c-0.084,0-0.404-0.035-1.037-0.035
		c-0.605,0-0.988,0.035-1.061,0.035c-0.062,0-0.082-0.035-0.082-0.105v-0.217c0-0.07,0.021-0.105,0.117-0.105h0.348
		c0.152,0,0.236-0.037,0.236-0.238v-2.789c0-0.358-0.191-0.562-0.486-0.702l-0.098-0.049c-0.084-0.035-0.098-0.071-0.098-0.107
		v-0.06c0-0.061,0.049-0.095,0.107-0.119l1.023-0.573c0.096-0.047,0.168-0.083,0.215-0.083c0.059,0,0.084,0.048,0.096,0.144
		l0.082,0.727h0.023c0.346-0.428,1.037-0.871,1.633-0.871c0.357,0,0.729,0.071,1.014,0.264c0.355,0.238,0.656,0.833,0.656,1.131
		v3.073L79.975,23.169L79.975,23.169z"/>
	<path fill="#8E8E8E" d="M84.168,20.262c0,0.619,0,2.417,0.01,2.788c0.014,0.202,0.062,0.37,0.309,0.37h0.539
		c0.107,0,0.129,0.035,0.129,0.105v0.203c0,0.068-0.02,0.119-0.068,0.119c-0.084,0-0.605-0.035-1.346-0.035
		c-0.764,0-1.24,0.035-1.35,0.035c-0.059,0-0.082-0.051-0.082-0.119v-0.203c0-0.086,0.023-0.105,0.154-0.105h0.57
		c0.133,0,0.252-0.085,0.264-0.298c0.014-0.372,0.014-2.418,0.014-3.11v-0.751c0-0.846-0.014-1.929-0.037-2.24
		c-0.021-0.405-0.213-0.597-0.596-0.715l-0.236-0.083c-0.061-0.024-0.07-0.036-0.07-0.06v-0.096c0-0.037,0.037-0.06,0.104-0.083
		c0.422-0.19,0.957-0.406,1.396-0.692c0.105-0.071,0.178-0.094,0.25-0.094c0.084,0,0.107,0.06,0.096,0.214
		c-0.012,0.656-0.047,3.134-0.047,3.79v1.061L84.168,20.262L84.168,20.262z"/>
	<path fill="#8E8E8E" d="M86.539,26.443c0-0.248,0.262-0.461,0.547-0.461c0.227,0,0.441,0.104,0.549,0.129
		c0.086,0.012,0.18,0,0.252-0.07c0.18-0.216,0.785-1.575,0.953-2.038c-0.061-0.297-1.324-4.014-1.42-4.265
		c-0.141-0.298-0.25-0.5-0.559-0.5H86.55c-0.082,0-0.094-0.036-0.094-0.107v-0.239c0-0.047,0.012-0.083,0.094-0.083
		c0.107,0,0.396,0.037,1.099,0.037c0.606,0,0.978-0.037,1.104-0.037c0.101,0,0.108,0.037,0.108,0.083v0.251
		c0,0.059-0.012,0.095-0.071,0.095h-0.226c-0.131,0-0.179,0.083-0.153,0.262c0.032,0.262,0.846,2.883,0.978,3.145h0.049
		c0.117-0.188,1.153-2.657,1.228-2.953c0.071-0.298-0.022-0.453-0.203-0.453H90.27c-0.066,0-0.082-0.037-0.082-0.095v-0.24
		c0-0.059,0.016-0.096,0.072-0.096c0.154,0,0.404,0.037,0.975,0.037c0.32,0,0.598-0.037,0.729-0.037c0.07,0,0.07,0.048,0.07,0.096
		v0.227c0,0.071,0,0.107-0.06,0.107h-0.19c-0.132,0-0.3,0.059-0.416,0.213c-0.265,0.322-1.05,2.131-1.873,4.003
		c-0.582,1.323-1.05,2.43-1.263,2.823c-0.166,0.312-0.383,0.772-1.015,0.772C86.766,27.053,86.539,26.805,86.539,26.443"/>
	<path fill="#8E8E8E" d="M27.176,19.496c-0.452,0-0.798,0.417-1.334,1.383c-0.406,0.713-0.596,1.439-0.596,1.928
		c0,0.239,0.144,0.524,0.417,0.524c0.357,0,0.738-0.25,1.227-1.181c0.37-0.688,0.728-1.701,0.728-2.144
		C27.617,19.722,27.497,19.496,27.176,19.496"/>
	<path fill="#8E8E8E" d="M39.312,19.817c0-0.191-0.047-0.405-0.322-0.405c-0.453,0-0.965,1.083-1.145,1.855
		c0.203,0.015,0.74-0.143,1.085-0.475C39.122,20.615,39.312,20.21,39.312,19.817"/>
	<path fill="#8E8E8E" d="M42.636,9.516c-4.845-7.555-17.137-3.208-13.946,6.327c-7.751-7.968-19.173,4.049-9.957,11.269
		c6.475,3.899,14.459,2.443,20.919,6.552C38.811,26.402,46.85,16.084,42.636,9.516 M24.213,16.04l-2.383,6.685
		c-0.12,0.334-0.107,0.512,0.12,0.512c0.286,0,0.703-0.43,0.858-0.582c0.037-0.035,0.072-0.035,0.107,0l0.131,0.143
		c0.024,0.035,0.036,0.073,0,0.133c-0.047,0.081-0.964,1.096-2.227,1.096c-0.25,0-0.513-0.295-0.513-0.5
		c0-0.2,0.215-0.774,0.334-1.106l1.871-5.41c0.155-0.453,0.119-0.751-0.226-0.751h-0.346c-0.083,0-0.107-0.048-0.096-0.108
		l0.072-0.238c0.024-0.072,0.048-0.083,0.119-0.083h2.098C24.237,15.825,24.273,15.896,24.213,16.04 M27.582,23.331
		c-0.464,0.502-0.989,0.69-1.751,0.69c-0.692,0-1.573-0.477-1.573-1.821c0-0.966,0.273-1.965,0.941-2.691
		c0.489-0.514,1.061-0.693,1.704-0.693s1.68,0.298,1.68,1.752C28.582,21.27,28.332,22.534,27.582,23.331 M34.648,22.271
		c-0.584,0.953-1.502,1.752-2.622,1.752c-0.405,0-0.632-0.166-0.87-0.383c-0.179-0.168-0.286-0.523-0.286-0.986
		c0-0.432,0.106-0.896,0.297-1.324c0.335-0.762,0.978-1.429,1.288-1.788l-0.072-0.083c-0.262,0.263-0.714,0.382-1.156,0.382h-0.583
		c-0.489,0-0.644,0.142-0.656,0.346c0.012,0.154,0.274,0.286,0.381,0.346c0.083,0.048,0.262,0.226,0.262,0.535
		c0,0.312-0.142,0.488-0.524,0.488c-0.321,0-0.644-0.31-0.644-0.929c0-0.49,0.298-0.989,0.465-1.18
		c0.237-0.263,0.5-0.573,1.357-0.573c1.454,0,1.597-0.059,1.729-0.059c0.155,0,0.273,0.071,0.166,0.239
		c-0.656,1.036-0.989,1.477-0.989,2.894c0,0.785,0.323,1.167,0.62,1.167c0.512,0,0.81-0.201,1-0.476
		c0.489-0.703,0.597-1.205,0.597-2.049c0.035-0.417-0.048-0.609-0.18-0.727c-0.06-0.061-0.166-0.286-0.166-0.441
		c0-0.167,0.226-0.607,0.798-0.607c0.452,0,0.643,0.5,0.643,1.012C35.505,20.615,35.362,21.115,34.648,22.271 M36.226,22.688
		c0-0.883,0.381-2.145,1.442-3.038c0.583-0.501,1.288-0.834,1.99-0.834c0.656,0,0.929,0.369,0.929,0.822
		c0,0.667-0.393,1.156-1.084,1.547c-0.656,0.371-1.299,0.486-1.751,0.523c-0.048,0.104-0.095,0.416-0.095,0.75
		c0,0.418,0.238,0.773,0.643,0.773c0.583,0,1.012-0.32,1.287-0.617c0.024-0.037,0.059-0.062,0.096-0.037l0.189,0.132
		c0.048,0.035,0.048,0.069,0.025,0.118c-0.215,0.43-1.109,1.191-2.277,1.191C36.81,24.021,36.226,23.534,36.226,22.688"/>
</g>
</svg>
