<?xml version="1.0" encoding="utf-8"?>
<!-- Generator: Adobe Illustrator 16.0.0, SVG Export Plug-In . SVG Version: 6.00 Build 0)  -->
<!DOCTYPE svg PUBLIC "-//W3C//DTD SVG 1.1//EN" "http://www.w3.org/Graphics/SVG/1.1/DTD/svg11.dtd">
<svg version="1.1" id="图层_1" xmlns="http://www.w3.org/2000/svg" xmlns:xlink="http://www.w3.org/1999/xlink" x="0px" y="0px"
	 width="107px" height="40px" viewBox="0 0 107 40" enable-background="new 0 0 107 40" xml:space="preserve">
<g>
	<path fill="#8E8E8E" d="M16.185,18.81c0-0.944-0.149-1.129-0.667-1.405l-0.351-0.186c-0.11-0.037-0.147-0.056-0.147-0.129v-0.111
		c0-0.073,0.037-0.111,0.147-0.166l1.832-0.945c0.111-0.056,0.186-0.075,0.26-0.075c0.109,0,0.129,0.112,0.129,0.223l0.092,1.314
		h0.075c0.555-0.852,1.424-1.611,2.22-1.611c0.629,0,0.944,0.389,0.944,0.814c0,0.536-0.445,0.906-0.777,0.906
		c-0.203,0-0.389-0.073-0.537-0.146c-0.148-0.093-0.37-0.149-0.61-0.149c-0.296,0-0.777,0.185-1.092,0.777
		c-0.11,0.203-0.185,0.537-0.185,0.592v3.85c0,0.572,0.129,0.758,0.518,0.758h0.871c0.112,0,0.129,0.059,0.129,0.169v0.331
		c0,0.111-0.018,0.167-0.092,0.167c-0.111,0-0.962-0.056-1.961-0.056c-1.147,0-1.924,0.056-2.035,0.056
		c-0.075,0-0.112-0.037-0.112-0.187V23.29c0-0.132,0.037-0.167,0.204-0.167h0.722c0.277,0,0.407-0.111,0.407-0.354
		c0.019-0.608,0.019-1.258,0.019-2.22v-1.74H16.185z"/>
	<path fill="#8E8E8E" d="M24.029,22.677c-0.851-1.018-1.018-1.7-1.018-3.016c0-0.942,0.5-2.127,1.591-2.979
		c0.961-0.74,1.869-0.889,2.48-0.889c1.017,0,2.035,0.52,2.59,1.074c0.833,0.852,1.259,1.812,1.259,3.016
		c0,2.018-1.814,4.07-4.091,4.07C25.952,23.955,24.807,23.604,24.029,22.677 M29.375,19.7c0-2.056-1.497-3.35-2.441-3.35
		c-0.5,0-0.982,0.111-1.426,0.592c-0.72,0.739-0.979,1.499-0.979,2.904c0,1.037,0.11,1.741,0.704,2.591
		c0.425,0.61,0.961,0.961,1.831,0.961C28.47,23.398,29.375,21.678,29.375,19.7"/>
	<path fill="#8E8E8E" d="M34.631,23.419c-0.092-0.058-0.092-0.168-0.11-0.261l-0.314-1.756c-0.02-0.094,0.037-0.131,0.11-0.148
		l0.242-0.056c0.073-0.019,0.128,0.019,0.165,0.11l0.462,0.905c0.372,0.685,0.63,1.147,1.61,1.147c0.648,0,1.461-0.389,1.461-1.26
		c0-0.83-0.407-1.312-1.794-1.704c-1.091-0.313-2.182-0.885-2.182-2.347c0-1.277,1.204-2.259,2.59-2.259
		c0.889,0,1.37,0.223,1.702,0.39c0.277,0.128,0.315,0.221,0.333,0.333l0.278,1.295c0,0.074-0.036,0.13-0.129,0.166l-0.223,0.075
		c-0.074,0.019-0.11,0-0.166-0.093l-0.629-0.851c-0.222-0.352-0.575-0.722-1.296-0.722c-0.703,0-1.424,0.426-1.424,1.221
		c0,1.075,0.871,1.278,1.777,1.536c1.351,0.388,2.202,0.943,2.219,2.369c-0.018,1.497-1.239,2.442-2.812,2.442
		C35.594,23.955,34.854,23.584,34.631,23.419"/>
	<path fill="#8E8E8E" d="M43.994,18.81c-0.038,0.167-0.056,0.463-0.056,0.888c0,1.813,1.147,3.182,2.626,3.182
		c1.128,0,1.926-0.646,2.239-1.258c0.037-0.074,0.111-0.108,0.167-0.091l0.241,0.128c0.056,0.019,0.091,0.073,0,0.278
		c-0.333,0.738-1.294,2.016-2.942,2.016c-1.055,0-2.219-0.312-2.905-1.312c-0.648-0.943-0.813-1.63-0.813-2.924
		c0-0.722,0.184-1.961,1.165-2.942c0.796-0.813,1.721-0.981,2.647-0.981c2.128,0,2.719,1.999,2.719,2.719
		c0,0.26-0.222,0.296-0.518,0.296L43.994,18.81L43.994,18.81L43.994,18.81z M46.936,18.255c0.351,0,0.5-0.092,0.5-0.258
		c0-0.426-0.222-1.647-1.425-1.647c-0.812,0-1.591,0.537-1.942,1.906L46.936,18.255L46.936,18.255z"/>
	<path fill="#8E8E8E" d="M53.263,22.677c-0.851-1.018-1.017-1.7-1.017-3.016c0-0.942,0.499-2.127,1.59-2.979
		c0.963-0.74,1.87-0.889,2.48-0.889c1.019,0,2.035,0.52,2.59,1.074c0.832,0.852,1.259,1.812,1.259,3.016
		c0,2.018-1.813,4.07-4.089,4.07C55.188,23.955,54.041,23.604,53.263,22.677 M58.609,19.7c0-2.056-1.498-3.35-2.442-3.35
		c-0.497,0-0.979,0.111-1.424,0.592c-0.722,0.739-0.98,1.499-0.98,2.904c0,1.037,0.111,1.741,0.703,2.591
		c0.427,0.61,0.962,0.961,1.832,0.961C57.703,23.398,58.609,21.678,58.609,19.7"/>
	<path fill="#8E8E8E" d="M70.859,22.732c0,0.295,0.166,0.391,0.406,0.391h0.594c0.166,0,0.203,0.057,0.203,0.165v0.296
		c0,0.13-0.037,0.204-0.148,0.204c-0.129,0-0.703-0.056-1.757-0.056c-0.944,0-1.537,0.056-1.666,0.056
		c-0.11,0-0.148-0.056-0.148-0.204v-0.296c0-0.13,0.058-0.165,0.241-0.165h0.536c0.206,0,0.353-0.096,0.371-0.428
		c0.02-0.48,0.036-1.071,0.036-1.555V18.7c0-0.74,0-1.275-0.536-1.665c-0.444-0.333-0.888-0.333-1.351-0.333
		c-0.297,0-0.945,0.129-1.5,0.722c-0.367,0.406-0.425,0.906-0.425,1.259v3.829c0,0.5,0.058,0.611,0.444,0.611h0.462
		c0.147,0,0.185,0.057,0.185,0.184v0.316c0,0.109-0.037,0.165-0.129,0.165c-0.13,0-0.629-0.056-1.609-0.056
		c-0.942,0-1.535,0.056-1.646,0.056c-0.093,0-0.13-0.056-0.13-0.165v-0.335c0-0.108,0.037-0.165,0.187-0.165h0.535
		c0.241,0,0.371-0.057,0.371-0.371v-4.33c0-0.556-0.297-0.869-0.76-1.091l-0.146-0.075c-0.129-0.055-0.148-0.111-0.148-0.167v-0.092
		c0-0.093,0.074-0.149,0.167-0.184l1.591-0.89c0.148-0.073,0.26-0.129,0.334-0.129c0.092,0,0.129,0.075,0.148,0.223l0.128,1.127
		h0.038c0.537-0.665,1.609-1.351,2.533-1.351c0.556,0,1.129,0.112,1.572,0.408c0.557,0.37,1.02,1.295,1.02,1.757L70.859,22.732
		L70.859,22.732z"/>
	<path fill="#8E8E8E" d="M77.372,18.218c0,0.962,0,3.757,0.021,4.331c0.018,0.314,0.09,0.572,0.479,0.572h0.832
		c0.167,0,0.203,0.059,0.203,0.167v0.313c0,0.111-0.036,0.187-0.109,0.187c-0.129,0-0.942-0.056-2.091-0.056
		c-1.186,0-1.926,0.056-2.092,0.056c-0.092,0-0.131-0.074-0.131-0.187v-0.313c0-0.13,0.039-0.167,0.242-0.167h0.889
		c0.203,0,0.39-0.128,0.406-0.461c0.019-0.575,0.019-3.757,0.019-4.83v-1.165c0-1.313-0.019-2.998-0.056-3.479
		c-0.036-0.628-0.332-0.925-0.926-1.11l-0.369-0.129c-0.092-0.038-0.11-0.056-0.11-0.092v-0.148c0-0.055,0.056-0.092,0.166-0.13
		c0.646-0.296,1.481-0.629,2.165-1.073c0.166-0.111,0.275-0.148,0.388-0.148c0.129,0,0.167,0.093,0.149,0.333
		c-0.021,1.018-0.077,4.866-0.077,5.883v1.647L77.372,18.218L77.372,18.218z"/>
	<path fill="#8E8E8E" d="M81.055,27.822c0-0.391,0.406-0.725,0.852-0.725c0.352,0,0.685,0.168,0.852,0.203
		c0.129,0.02,0.277,0,0.389-0.109c0.277-0.334,1.222-2.442,1.479-3.164c-0.093-0.463-2.056-6.253-2.203-6.643
		c-0.22-0.461-0.388-0.777-0.866-0.777h-0.483c-0.128,0-0.146-0.056-0.146-0.166v-0.37c0-0.074,0.019-0.13,0.146-0.13
		c0.167,0,0.612,0.056,1.702,0.056c0.943,0,1.519-0.056,1.72-0.056c0.151,0,0.169,0.056,0.169,0.13v0.388
		c0,0.091-0.018,0.147-0.111,0.147H84.2c-0.204,0-0.278,0.131-0.242,0.408c0.058,0.408,1.315,4.497,1.519,4.905h0.073
		c0.185-0.297,1.796-4.147,1.905-4.609c0.111-0.463-0.036-0.703-0.312-0.703h-0.297c-0.109,0-0.129-0.056-0.129-0.147V16.09
		c0-0.092,0.02-0.147,0.11-0.147c0.239,0,0.628,0.056,1.519,0.056c0.498,0,0.926-0.056,1.127-0.056c0.111,0,0.111,0.073,0.111,0.147
		v0.352c0,0.11,0,0.166-0.094,0.166h-0.297c-0.202,0-0.461,0.093-0.646,0.333c-0.407,0.5-1.629,3.331-2.905,6.237
		c-0.908,2.053-1.629,3.773-1.961,4.383c-0.26,0.481-0.594,1.203-1.572,1.203C81.404,28.764,81.055,28.377,81.055,27.822"/>
	<path fill="#8E8E8E" d="M90.675,22.863c0-0.314,0.222-1.037,1.148-1.037c0.536,0,1.034,0.426,1.034,1.111
		c0,0.608-0.461,1.018-1.034,1.018C91.416,23.955,90.675,23.732,90.675,22.863"/>
</g>
</svg>
