<?xml version="1.0" encoding="utf-8"?>
<!-- Generator: Adobe Illustrator 16.0.0, SVG Export Plug-In . SVG Version: 6.00 Build 0)  -->
<!DOCTYPE svg PUBLIC "-//W3C//DTD SVG 1.1//EN" "http://www.w3.org/Graphics/SVG/1.1/DTD/svg11.dtd">
<svg version="1.1" id="图层_1" xmlns="http://www.w3.org/2000/svg" xmlns:xlink="http://www.w3.org/1999/xlink" x="0px" y="0px"
	 width="13px" height="15px" viewBox="0 0 13 15" enable-background="new 0 0 13 15" xml:space="preserve">
<path fill="#FFFFFF" d="M12.922,13.828l-0.003-0.02c-0.302-2.271-1.783-4.234-3.866-5.129L8.584,8.479l0.422-0.287
	c1.23-0.84,1.965-2.225,1.965-3.704C10.962,2.014,8.954,0,6.494,0C4.029,0,2.023,2.013,2.023,4.488c0,1.481,0.731,2.867,1.958,3.704
	l0.421,0.287L3.934,8.682c-2.071,0.891-3.553,2.829-3.867,5.062l-0.002,0.014c0,0.001-0.046,0.201-0.064,0.298
	c0.021,0.457,0.426,0.523,0.427,0.523l0.011,0.015h11.934c0.001,0,0.001,0,0.001,0c0.087,0,0.5-0.04,0.562-0.501
	C12.93,13.989,12.925,13.855,12.922,13.828z M2.818,4.488c0-2.03,1.647-3.681,3.673-3.681c2.03,0,3.68,1.651,3.68,3.681
	c0,1.925-1.501,3.538-3.417,3.67L6.723,8.16l-0.01-0.003c-0.036,0-0.07-0.001-0.105-0.003C6.542,8.15,6.469,8.152,6.393,8.156h-0.02
	C6.336,8.158,6.298,8.16,6.261,8.16h-0.02C4.322,8.027,2.818,6.414,2.818,4.488z M0.879,13.791l0.067-0.262
	C1.512,10.96,3.724,9.1,6.327,9.011c0.01,0,0.021-0.005,0.031-0.007C6.376,9.001,6.393,8.997,6.41,8.996
	C6.497,8.991,6.584,8.99,6.649,8.998c0.024,0.004,0.044,0.004,0.056,0.004c2.604,0.09,4.816,1.956,5.388,4.523l0.07,0.266H0.879
	L0.879,13.791z"/>
</svg>
