<?xml version="1.0" encoding="utf-8"?>
<!-- Generator: Adobe Illustrator 16.0.0, SVG Export Plug-In . SVG Version: 6.00 Build 0)  -->
<!DOCTYPE svg PUBLIC "-//W3C//DTD SVG 1.1//EN" "http://www.w3.org/Graphics/SVG/1.1/DTD/svg11.dtd">
<svg version="1.1" id="图层_1" xmlns="http://www.w3.org/2000/svg" xmlns:xlink="http://www.w3.org/1999/xlink" x="0px" y="0px"
	 width="12px" height="16px" viewBox="0 0 12 16" enable-background="new 0 0 12 16" xml:space="preserve">
<path fill="#FFFFFF" d="M2.39,6.49c0-0.263,0.214-0.478,0.478-0.478c0.264,0,0.479,0.214,0.479,0.478
	c0,0.264-0.214,0.478-0.479,0.478C2.604,6.968,2.39,6.754,2.39,6.49z M11.634,15.605c0,0.212-0.179,0.385-0.398,0.385H0.398
	c-0.11,0-0.216-0.044-0.292-0.122C0.034,15.792-0.006,15.688,0,15.584L0.012,4.915c0.012-0.203,0.187-0.362,0.398-0.362h1.991v-1.23
	C2.401,1.491,3.934,0,5.816,0S9.23,1.491,9.23,3.323v1.23h1.991c0.211,0,0.387,0.159,0.398,0.362
	C11.62,4.915,11.634,15.574,11.634,15.605z M3.199,4.553h5.235v-1.23c0-1.409-1.175-2.555-2.617-2.555
	c-1.443,0-2.618,1.146-2.618,2.555V4.553z M10.846,5.321H0.787l-0.008,9.901h10.066V5.321z M8.801,6.968
	c0.264,0,0.478-0.214,0.478-0.478c0-0.263-0.214-0.478-0.478-0.478S8.322,6.227,8.322,6.49C8.322,6.754,8.537,6.968,8.801,6.968z"/>
</svg>
